<?xml version="1.0" encoding="UTF-8" standalone="no"?>
<!-- Created with Inkscape (http://www.inkscape.org/) -->
<svg
   xmlns:dc="http://purl.org/dc/elements/1.1/"
   xmlns:cc="http://creativecommons.org/ns#"
   xmlns:rdf="http://www.w3.org/1999/02/22-rdf-syntax-ns#"
   xmlns:svg="http://www.w3.org/2000/svg"
   xmlns="http://www.w3.org/2000/svg"
   xmlns:sodipodi="http://sodipodi.sourceforge.net/DTD/sodipodi-0.dtd"
   xmlns:inkscape="http://www.inkscape.org/namespaces/inkscape"
   width="600"
   height="600"
   id="svg2"
   sodipodi:version="0.32"
   inkscape:version="0.46"
   version="1.0"
   sodipodi:docname="2.svg"
   inkscape:output_extension="org.inkscape.output.svg.inkscape">
  <defs
     id="defs4">
    <inkscape:perspective
       sodipodi:type="inkscape:persp3d"
       inkscape:vp_x="0 : 526.18109 : 1"
       inkscape:vp_y="0 : 1000 : 0"
       inkscape:vp_z="744.09448 : 526.18109 : 1"
       inkscape:persp3d-origin="372.04724 : 350.78739 : 1"
       id="perspective10" />
  </defs>
  <sodipodi:namedview
     id="base"
     pagecolor="#ffffff"
     bordercolor="#666666"
     borderopacity="1.0"
     gridtolerance="10000"
     guidetolerance="10"
     objecttolerance="10"
     inkscape:pageopacity="0.0"
     inkscape:pageshadow="2"
     inkscape:zoom="1.195"
     inkscape:cx="314.50538"
     inkscape:cy="375.15242"
     inkscape:document-units="px"
     inkscape:current-layer="layer1"
     showgrid="true"
     inkscape:window-width="1280"
     inkscape:window-height="949"
     inkscape:window-x="0"
     inkscape:window-y="25">
    <inkscape:grid
       type="xygrid"
       visible="true"
       enabled="true"
       id="grid2383" />
  </sodipodi:namedview>
  <metadata
     id="metadata7">
    <rdf:RDF>
      <cc:Work
         rdf:about="">
        <dc:format>image/svg+xml</dc:format>
        <dc:type
           rdf:resource="http://purl.org/dc/dcmitype/StillImage" />
      </cc:Work>
    </rdf:RDF>
  </metadata>
  <g
     inkscape:label="Layer 1"
     inkscape:groupmode="layer"
     id="layer1">
    <path
       style="fill:none;fill-rule:evenodd;stroke:#000000;stroke-width:0.95297354px;stroke-linecap:butt;stroke-linejoin:miter;stroke-opacity:1"
       d="M 149.14849,248.57846 L 201.17367,248.57846 L 201.17367,70.525875 L 409.2744,70.525875 L 409.2744,248.57846 L 461.29958,248.57846"
       id="path2469" />
    <path
       style="fill:none;fill-rule:evenodd;stroke:#000000;stroke-width:0.95297354px;stroke-linecap:butt;stroke-linejoin:miter;stroke-opacity:1"
       d="M 149.14849,248.57846 L 131.80677,248.57846"
       id="path2481" />
    <path
       style="fill:none;fill-rule:evenodd;stroke:#000000;stroke-width:0.95297354px;stroke-linecap:butt;stroke-linejoin:miter;stroke-opacity:1"
       d="M 461.29958,248.57846 L 478.64131,248.57846"
       id="path2483" />
    <path
       style="fill:none;fill-rule:evenodd;stroke:#000000;stroke-width:0.95297354px;stroke-linecap:butt;stroke-linejoin:miter;stroke-opacity:1"
       d="M 478.64131,248.57846 L 504.6539,248.57846"
       id="path2485" />
    <path
       style="fill:none;fill-rule:evenodd;stroke:#000000;stroke-width:0.95297354px;stroke-linecap:butt;stroke-linejoin:miter;stroke-opacity:1"
       d="M 131.80677,248.57846 L 105.79418,248.57846"
       id="path2487" />
    <path
       style="fill:none;fill-rule:evenodd;stroke:#000000;stroke-width:0.95297354px;stroke-linecap:butt;stroke-linejoin:miter;stroke-opacity:1"
       d="M 105.79418,248.57846 L 305.22404,510.42049"
       id="path2491" />
    <path
       style="fill:#d45500;fill-rule:evenodd;stroke:#000000;stroke-width:0.95297354px;stroke-linecap:butt;stroke-linejoin:miter;stroke-opacity:1"
       d="M 504.6539,248.57846 L 305.22404,510.42049"
       id="path2493" />
    <path
       style="fill:#44aa00"
       d="M 206.61432,379.55697 L 108.07716,250.11226 L 154.91566,249.88678 L 201.75416,249.66125 L 201.75416,160.70709 L 201.75416,71.75292 L 305.15148,71.75292 L 408.54881,71.75292 L 408.54881,160.70709 L 408.54881,249.66125 L 455.46798,249.88678 L 502.38707,250.11226 L 405.31694,377.637 C 351.92836,447.7756 307.55036,506.02572 306.69915,507.08171 L 305.15148,509.00164 L 206.61432,379.55697 z"
       id="path2515" />
    <path
       style="fill:none;fill-rule:evenodd;stroke:#000000;stroke-width:0.95297354px;stroke-linecap:butt;stroke-linejoin:miter;stroke-opacity:1"
       d="M 183.83195,49.578513 L 426.61613,49.578513 L 426.61613,227.6311"
       id="path2519" />
    <path
       style="fill:none;fill-rule:evenodd;stroke:#000000;stroke-width:0.95297354px;stroke-linecap:butt;stroke-linejoin:miter;stroke-opacity:1"
       d="M 183.83195,49.578513 L 183.83195,227.6311"
       id="path2523" />
    <path
       style="fill:none;fill-rule:evenodd;stroke:#000000;stroke-width:0.95297354px;stroke-linecap:butt;stroke-linejoin:miter;stroke-opacity:1"
       d="M 183.83195,227.6311 L 53.768995,227.6311 L 305.22404,541.84153 L 322.56577,520.89417 L 548.00822,227.6311 L 426.61613,227.6311"
       id="path2525" />
    <path
       style="fill:#ffff00;stroke:#00ff00;stroke-width:0.79746741"
       d="M 180.59869,384.79134 L 56.045949,229.07725 L 120.19288,228.85343 L 184.33987,228.62956 L 184.33987,139.67373 L 184.33987,50.717908 L 305.15148,50.717908 L 425.9631,50.717908 L 425.9631,139.67341 L 425.9631,228.62891 L 485.85402,228.85305 L 545.74495,229.07725 L 434.64854,373.69294 C 373.54558,453.23156 319.41205,523.3029 314.35186,529.40702 L 305.15148,540.50543 L 180.59869,384.79134 z M 405.68416,379.94011 C 460.33701,308.17587 505.05298,249.1135 505.05298,248.6904 C 505.05298,248.2568 484.31315,247.9211 457.52649,247.9211 L 410,247.9211 L 410,158.96056 L 410,70 L 305.15148,70 L 200.30296,70 L 200.30296,158.96056 L 200.30296,247.9211 L 152.71602,247.9211 C 118.68583,247.9211 105.20417,248.19336 105.39276,248.87674 C 105.9796,251.00334 304.49571,510.86382 305.3706,510.65067 C 305.8902,510.52406 351.0313,451.70431 405.68416,379.94009 L 405.68416,379.94011 z"
       id="path2527" />
    <path
       style="fill:#d40000"
       d="M 207.0084,379.43796 L 109.00305,250.70532 L 155.4362,250.48907 L 201.8694,250.27287 L 201.8694,161.15853 L 201.8694,72.044233 L 305.21668,72.044233 L 408.56396,72.044233 L 408.56396,161.15853 L 408.56396,250.27287 L 455.00948,250.48907 L 501.45517,250.70532 L 404.32011,378.32038 C 350.89584,448.50867 306.69653,506.43837 306.09941,507.05305 C 305.20265,507.97622 287.96055,485.77082 207.00839,379.43799 L 207.0084,379.43796 z"
       id="path2461" />
  </g>
</svg>
